<svg width="85" height="85" viewBox="0 0 85 85" fill="none" xmlns="http://www.w3.org/2000/svg">
<path d="M42.497 79.6816C67.2917 79.6816 79.6816 63.0335 79.6816 42.497C79.6816 21.9606 67.2917 5.3125 42.497 5.3125C17.7024 5.3125 5.3125 21.9606 5.3125 42.497C5.3125 63.0335 17.7024 79.6816 42.497 79.6816Z" fill="#FFB02E"/>
<path d="M27.6755 43.0961C33.8457 43.0961 38.8476 38.0942 38.8476 31.924C38.8476 25.7539 33.8457 20.752 27.6755 20.752C21.5053 20.752 16.5034 25.7539 16.5034 31.924C16.5034 38.0942 21.5053 43.0961 27.6755 43.0961Z" fill="white"/>
<path d="M57.2905 43.2998C63.517 43.2998 68.5645 38.2523 68.5645 32.0259C68.5645 25.7995 63.517 20.752 57.2905 20.752C51.0641 20.752 46.0166 25.7995 46.0166 32.0259C46.0166 38.2523 51.0641 43.2998 57.2905 43.2998Z" fill="white"/>
<path d="M29.2188 39.8438C33.6198 39.8438 37.1875 36.276 37.1875 31.875C37.1875 27.474 33.6198 23.9062 29.2188 23.9062C24.8177 23.9062 21.25 27.474 21.25 31.875C21.25 36.276 24.8177 39.8438 29.2188 39.8438Z" fill="#402A32"/>
<path d="M55.7812 39.8438C60.1823 39.8438 63.75 36.276 63.75 31.875C63.75 27.474 60.1823 23.9062 55.7812 23.9062C51.3802 23.9062 47.8125 27.474 47.8125 31.875C47.8125 36.276 51.3802 39.8438 55.7812 39.8438Z" fill="#402A32"/>
<path d="M26.5625 53.125C26.5625 51.658 27.7517 50.4688 29.2188 50.4688H55.7812C57.2483 50.4688 58.4375 51.658 58.4375 53.125C58.4375 54.592 57.2483 55.7812 55.7812 55.7812H29.2188C27.7517 55.7812 26.5625 54.592 26.5625 53.125Z" fill="#402A32"/>
</svg>
