<svg width="105" height="105" viewBox="0 0 105 105" fill="none" xmlns="http://www.w3.org/2000/svg">
<path d="M52.4963 98.4302C83.125 98.4302 98.4302 77.8649 98.4302 52.4963C98.4302 27.1278 83.125 6.5625 52.4963 6.5625C21.8677 6.5625 6.5625 27.1278 6.5625 52.4963C6.5625 77.8649 21.8677 98.4302 52.4963 98.4302Z" fill="#FFB02E"/>
<path d="M34.1875 63.0802C41.8095 63.0802 47.9884 56.9013 47.9884 49.2793C47.9884 41.6574 41.8095 35.4785 34.1875 35.4785C26.5656 35.4785 20.3867 41.6574 20.3867 49.2793C20.3867 56.9013 26.5656 63.0802 34.1875 63.0802Z" fill="white"/>
<path d="M70.7708 63.3318C78.4623 63.3318 84.6974 57.0966 84.6974 49.4052C84.6974 41.7137 78.4623 35.4785 70.7708 35.4785C63.0793 35.4785 56.8442 41.7137 56.8442 49.4052C56.8442 57.0966 63.0793 63.3318 70.7708 63.3318Z" fill="white"/>
<path d="M36.0938 59.0625C41.5303 59.0625 45.9375 54.6553 45.9375 49.2188C45.9375 43.7822 41.5303 39.375 36.0938 39.375C30.6572 39.375 26.25 43.7822 26.25 49.2188C26.25 54.6553 30.6572 59.0625 36.0938 59.0625Z" fill="#402A32"/>
<path d="M68.9062 59.0625C74.3428 59.0625 78.75 54.6553 78.75 49.2188C78.75 43.7822 74.3428 39.375 68.9062 39.375C63.4697 39.375 59.0625 43.7822 59.0625 49.2188C59.0625 54.6553 63.4697 59.0625 68.9062 59.0625Z" fill="#402A32"/>
<path d="M40.2173 73.2737C41.4296 71.9268 43.5043 71.8176 44.8513 73.0298C46.5466 74.5556 49.3691 75.5098 52.5 75.5098C55.6309 75.5098 58.4534 74.5556 60.1487 73.0298C61.4957 71.8176 63.5704 71.9268 64.7827 73.2737C65.995 74.6207 65.8858 76.6954 64.5388 77.9077C61.3123 80.8116 56.7519 82.0723 52.5 82.0723C48.2481 82.0723 43.6878 80.8116 40.4612 77.9077C39.1143 76.6954 39.0051 74.6207 40.2173 73.2737Z" fill="#402A32"/>
<path d="M72.1875 68.9062C72.1875 65.2819 75.1256 62.3438 78.75 62.3438C82.3744 62.3438 85.3125 65.2819 85.3125 68.9062V78.75C85.3125 82.3744 82.3744 85.3125 78.75 85.3125C75.1256 85.3125 72.1875 82.3744 72.1875 78.75V68.9062Z" fill="#3F5FFF"/>
</svg>
