<svg width="105" height="105" viewBox="0 0 105 105" fill="none" xmlns="http://www.w3.org/2000/svg">
<path d="M79.6114 73.6558L79.1038 42.8448C78.7789 39.921 77.1749 35.9923 71.6929 35.9923C65.2972 36.2968 65.0434 42.8448 65.0434 42.8448L55.2976 25.4344C52.8611 21.7289 48.8653 21.471 46.3639 22.9978C43.8625 24.5247 43.3183 27.617 43.3183 27.617L41.2879 24.9775C39.7611 22.4761 35.1919 22.1847 32.8619 23.607C28.9945 25.9676 28.4325 30.8553 30.933 33.5558C30.769 33.3787 28.8579 32.7169 25.654 34.6725C23.1526 36.1994 22.3799 40.7639 23.7758 43.3524C25.1718 45.941 25.3748 46.3471 25.3748 46.3471C25.3748 46.3471 23.2175 45.3319 19.8166 47.616C17.3838 49.25 16.5132 54.0992 18.04 56.6007L26.2306 70.4105L37.5033 88.8301C44.1305 98.2232 58.2603 101.467 68.5275 95.2299C75.5281 90.9771 80.2781 81.9903 79.6114 73.6558Z" fill="#F59F00"/>
<path d="M43.6189 28.1001L43.318 27.616C43.3283 27.5588 43.6761 25.6756 45.0205 24.1387L46.4056 26.3678C47.5029 28.1331 48.9894 30.523 50.5463 33.0218C53.6653 38.0276 57.0522 43.4464 58.1704 45.1746C58.6627 45.9354 58.445 46.9511 57.6843 47.4433C56.9235 47.9356 55.9078 47.7179 55.4156 46.9572C54.278 45.199 50.8716 39.7487 47.7614 34.757C46.2037 32.2569 44.7165 29.866 43.6189 28.1001Z" fill="#D67D00"/>
<path d="M30.7703 33.465C30.5074 33.3934 30.26 33.3456 30.0292 33.3155C30.3696 33.3402 30.6188 33.4044 30.7703 33.465Z" fill="#D67D00"/>
<path d="M30.8768 33.495C31.7953 33.7636 32.8954 34.3235 34.1325 35.4232C34.2264 35.5067 34.4457 35.755 34.7968 36.2487C35.1276 36.7137 35.5173 37.3127 35.9532 38.0191C36.8244 39.4307 37.8393 41.2037 38.8763 43.0538C39.421 44.0258 39.9749 45.0247 40.5163 46.0013C42.004 48.6846 43.3982 51.1992 44.2527 52.5199C44.745 53.2806 45.7607 53.4983 46.5214 53.0061C47.2822 52.5138 47.4998 51.4981 47.0076 50.7374C46.2185 49.5179 44.9187 47.1736 43.4594 44.5418C42.9026 43.5375 42.3224 42.4911 41.7386 41.4495C40.698 39.5929 39.655 37.7695 38.7455 36.2958C38.2911 35.5595 37.8596 34.8937 37.4707 34.3469C37.1022 33.8287 36.7032 33.3181 36.3124 32.9707C33.7013 30.6497 31.2948 30.0066 29.4327 29.9916C29.5227 31.2897 30.0076 32.5272 30.8768 33.495Z" fill="#D67D00"/>
<path d="M25.2337 46.2939C24.866 46.2136 24.517 46.1589 24.2026 46.1252C24.7019 46.1424 25.053 46.2339 25.2337 46.2939Z" fill="#D67D00"/>
<path d="M25.3618 46.3228C25.4648 46.3467 25.5691 46.3726 25.6744 46.4006C26.7429 46.6851 27.7274 47.1384 28.3903 47.7277C28.7228 48.0232 29.2259 48.6316 29.874 49.5505C30.5012 50.4396 31.1963 51.5203 31.9152 52.6785C32.4962 53.6145 33.1023 54.6177 33.6934 55.5961C34.5297 56.9803 35.3361 58.3151 35.9984 59.3386C36.4906 60.0993 37.5063 60.317 38.2671 59.8248C39.0278 59.3325 39.2454 58.3168 38.7532 57.5561C38.1054 56.5549 37.3571 55.3154 36.5534 53.9841C35.9609 53.0027 35.3378 51.9706 34.7031 50.948C33.9725 49.771 33.2378 48.6266 32.5553 47.6591C31.8938 46.7213 31.2072 45.8414 30.5702 45.2752C29.3875 44.2239 27.8683 43.5891 26.5186 43.2298C25.4663 42.9497 24.4053 42.8076 23.5215 42.8012C23.5963 42.993 23.6808 43.1773 23.7753 43.3526C24.9899 45.6049 25.3014 46.2049 25.3618 46.3228Z" fill="#D67D00"/>
<path d="M98.2846 73.407V42.2864C97.9564 39.3333 95.8236 35.3651 90.2865 35.3651C83.8265 35.6727 83.5702 42.2864 83.5702 42.2864L73.7264 24.7011C71.2655 20.9583 67.2296 20.6979 64.703 22.2401C62.1764 23.7822 61.6268 26.9056 61.6268 26.9056L59.5761 24.2396C58.0339 21.713 53.4188 21.4188 51.0653 22.8553C47.159 25.2397 46.5914 30.1764 49.1171 32.9042C48.9514 32.7252 47.0211 32.0568 43.785 34.0321C41.2585 35.5743 40.478 40.1846 41.888 42.7992C43.2979 45.4137 43.503 45.8239 43.503 45.8239C43.503 45.8239 41.3241 44.7985 37.889 47.1056C35.4317 48.756 34.5523 53.654 36.0945 56.1805L44.3674 70.1291L55.7534 88.7338C62.4471 98.2214 76.719 101.497 87.0893 95.1979C94.1603 90.9024 98.958 81.8253 98.2846 73.407Z" fill="#FFC83D"/>
<path d="M61.6362 26.8521L61.679 26.9211C62.7767 28.687 64.2638 31.078 65.8216 33.578C68.9318 38.5697 72.3381 44.02 73.4758 45.7782C73.968 46.5389 74.9837 46.7566 75.7444 46.2643C76.5052 45.7721 76.7228 44.7564 76.2306 43.9956C75.1124 42.2675 71.7255 36.8486 68.6065 31.8428C67.0496 29.3441 65.5631 26.9541 64.4658 25.1889L63.3478 23.3896C62.1023 24.812 61.7026 26.5292 61.6362 26.8521Z" fill="#D67D00"/>
<path d="M48.8536 32.7772C48.3448 32.681 47.9002 32.6531 47.5498 32.664C48.1542 32.6197 48.5942 32.6941 48.8536 32.7772Z" fill="#D67D00"/>
<path d="M53.0759 34.9328C51.6463 33.662 50.1913 33.0623 49.0336 32.8135C48.1891 31.8597 47.7102 30.6512 47.6068 29.3812C49.5685 29.3606 52.5169 30.0458 55.2559 32.4804C55.9309 33.0804 56.7868 34.2823 57.6346 35.5684C58.5281 36.924 59.5492 38.5902 60.5686 40.2919C61.3293 41.5618 62.0846 42.8436 62.7907 44.042C64.0034 46.0998 65.071 47.9115 65.7716 48.9943C66.2638 49.755 66.0462 50.7707 65.2854 51.263C64.5247 51.7552 63.509 51.5376 63.0167 50.7768C62.2813 49.6402 61.1471 47.7159 59.9012 45.602C59.2037 44.4187 58.4709 43.1753 57.7537 41.978C56.7403 40.2862 55.7485 38.6691 54.895 37.3743C53.9956 36.01 53.3703 35.1945 53.0759 34.9328Z" fill="#D67D00"/>
<path d="M43.884 45.8927C43.7352 45.8323 43.591 45.7772 43.452 45.7272C43.3328 45.4977 42.9566 44.7829 41.8869 42.7993C41.757 42.5585 41.6458 42.3008 41.5527 42.0301C42.6461 42.0156 43.9597 42.3816 45.1193 42.8529C46.4517 43.3943 47.8778 44.1961 48.9754 45.1717C49.6396 45.7621 50.3372 46.7218 50.9926 47.7232C51.6748 48.7655 52.409 50.0083 53.1376 51.2788C53.5799 52.0502 54.018 52.8273 54.444 53.5832C55.4496 55.3673 56.3883 57.0327 57.1584 58.2228C57.6506 58.9835 57.433 59.9992 56.6722 60.4915C55.9115 60.9837 54.8958 60.7661 54.4036 60.0053C53.5759 58.7263 52.5543 56.9138 51.5236 55.0853C51.1103 54.352 50.6954 53.6161 50.2911 52.911C49.5701 51.6537 48.8747 50.4789 48.2471 49.5201C47.5928 48.5204 47.1007 47.8955 46.7955 47.6242C46.0474 46.9592 44.9699 46.334 43.884 45.8927Z" fill="#D67D00"/>
<path d="M86.6359 47.7095C86.0706 46.7348 84.932 44.7026 83.5707 42.2548C83.5874 41.9746 83.7509 39.8977 85.0145 38.095C86.9744 41.6311 88.7353 44.789 89.4743 46.0632C89.9289 46.847 89.662 47.851 88.8782 48.3056C88.0944 48.7602 87.0905 48.4933 86.6359 47.7095Z" fill="#D67D00"/>
<path d="M26.4201 15.806L22.417 10.3869C21.7936 9.54011 22.1873 8.32075 23.1717 8.01592L27.6342 6.62729C28.6186 6.32246 29.603 7.13531 29.5373 8.18528L29.078 14.9932C28.9467 16.3818 27.2404 16.9237 26.4201 15.806Z" fill="#46A4FB"/>
<path d="M18.6764 21.1283L12.5733 18.5689C11.6217 18.1752 11.3592 16.9611 12.0811 16.2064L15.2639 12.8267C15.9529 12.072 17.1998 12.2689 17.6592 13.1877L20.5795 19.1267C21.1373 20.3408 19.9233 21.6533 18.6764 21.1283Z" fill="#46A4FB"/>
<path d="M8.26805 30.7091L15.0651 29.8239C16.4585 29.6537 16.9003 27.8491 15.7448 27.0319L10.0693 23.2186C9.18566 22.6397 7.96218 23.1164 7.72429 24.1378L6.60277 28.8365C6.36487 29.892 7.21451 30.8453 8.26805 30.7091Z" fill="#46A4FB"/>
</svg>
