<svg width="24" height="24" viewBox="0 0 24 24" fill="none" xmlns="http://www.w3.org/2000/svg">
<g clip-path="url(#clip0_2514_6286)">
<path d="M17.1697 24.0002C17.0381 24.0009 16.9077 23.9757 16.7858 23.9259C16.664 23.8762 16.5532 23.8028 16.4597 23.7102L8.28974 15.5402C7.82411 15.0757 7.45468 14.524 7.20261 13.9165C6.95055 13.3091 6.8208 12.6578 6.8208 12.0002C6.8208 11.3425 6.95055 10.6913 7.20261 10.0838C7.45468 9.47639 7.82411 8.92463 8.28974 8.46017L16.4597 0.290185C16.553 0.196947 16.6637 0.122986 16.7855 0.0725256C16.9073 0.0220653 17.0379 -0.00390625 17.1697 -0.00390625C17.3016 -0.00390625 17.4322 0.0220653 17.554 0.0725256C17.6758 0.122986 17.7865 0.196947 17.8797 0.290185C17.973 0.383423 18.0469 0.494114 18.0974 0.615935C18.1479 0.737757 18.1738 0.868325 18.1738 1.00018C18.1738 1.13204 18.1479 1.26261 18.0974 1.38443C18.0469 1.50625 17.973 1.61694 17.8797 1.71018L9.70974 9.88017C9.14794 10.4427 8.83238 11.2052 8.83238 12.0002C8.83238 12.7952 9.14794 13.5577 9.70974 14.1202L17.8797 22.2902C17.9735 22.3831 18.0479 22.4937 18.0986 22.6156C18.1494 22.7374 18.1755 22.8681 18.1755 23.0002C18.1755 23.1322 18.1494 23.2629 18.0986 23.3847C18.0479 23.5066 17.9735 23.6172 17.8797 23.7102C17.7863 23.8028 17.6755 23.8762 17.5536 23.9259C17.4318 23.9757 17.3013 24.0009 17.1697 24.0002Z" fill="#111827"/>
<path d="M17.1697 24.0002C17.0381 24.0009 16.9077 23.9757 16.7858 23.9259C16.664 23.8762 16.5532 23.8028 16.4597 23.7102L8.28974 15.5402C7.82411 15.0757 7.45468 14.524 7.20261 13.9165C6.95055 13.3091 6.8208 12.6578 6.8208 12.0002C6.8208 11.3425 6.95055 10.6913 7.20261 10.0838C7.45468 9.47639 7.82411 8.92463 8.28974 8.46017L16.4597 0.290185C16.553 0.196947 16.6637 0.122986 16.7855 0.0725256C16.9073 0.0220653 17.0379 -0.00390625 17.1697 -0.00390625C17.3016 -0.00390625 17.4322 0.0220653 17.554 0.0725256C17.6758 0.122986 17.7865 0.196947 17.8797 0.290185C17.973 0.383423 18.0469 0.494114 18.0974 0.615935C18.1479 0.737757 18.1738 0.868325 18.1738 1.00018C18.1738 1.13204 18.1479 1.26261 18.0974 1.38443C18.0469 1.50625 17.973 1.61694 17.8797 1.71018L9.70974 9.88017C9.14794 10.4427 8.83238 11.2052 8.83238 12.0002C8.83238 12.7952 9.14794 13.5577 9.70974 14.1202L17.8797 22.2902C17.9735 22.3831 18.0479 22.4937 18.0986 22.6156C18.1494 22.7374 18.1755 22.8681 18.1755 23.0002C18.1755 23.1322 18.1494 23.2629 18.0986 23.3847C18.0479 23.5066 17.9735 23.6172 17.8797 23.7102C17.7863 23.8028 17.6755 23.8762 17.5536 23.9259C17.4318 23.9757 17.3013 24.0009 17.1697 24.0002Z" fill="black" fill-opacity="0.2"/>
<path d="M17.1697 24.0002C17.0381 24.0009 16.9077 23.9757 16.7858 23.9259C16.664 23.8762 16.5532 23.8028 16.4597 23.7102L8.28974 15.5402C7.82411 15.0757 7.45468 14.524 7.20261 13.9165C6.95055 13.3091 6.8208 12.6578 6.8208 12.0002C6.8208 11.3425 6.95055 10.6913 7.20261 10.0838C7.45468 9.47639 7.82411 8.92463 8.28974 8.46017L16.4597 0.290185C16.553 0.196947 16.6637 0.122986 16.7855 0.0725256C16.9073 0.0220653 17.0379 -0.00390625 17.1697 -0.00390625C17.3016 -0.00390625 17.4322 0.0220653 17.554 0.0725256C17.6758 0.122986 17.7865 0.196947 17.8797 0.290185C17.973 0.383423 18.0469 0.494114 18.0974 0.615935C18.1479 0.737757 18.1738 0.868325 18.1738 1.00018C18.1738 1.13204 18.1479 1.26261 18.0974 1.38443C18.0469 1.50625 17.973 1.61694 17.8797 1.71018L9.70974 9.88017C9.14794 10.4427 8.83238 11.2052 8.83238 12.0002C8.83238 12.7952 9.14794 13.5577 9.70974 14.1202L17.8797 22.2902C17.9735 22.3831 18.0479 22.4937 18.0986 22.6156C18.1494 22.7374 18.1755 22.8681 18.1755 23.0002C18.1755 23.1322 18.1494 23.2629 18.0986 23.3847C18.0479 23.5066 17.9735 23.6172 17.8797 23.7102C17.7863 23.8028 17.6755 23.8762 17.5536 23.9259C17.4318 23.9757 17.3013 24.0009 17.1697 24.0002Z" fill="black" fill-opacity="0.2"/>
</g>
<defs>
<clipPath id="clip0_2514_6286">
<rect width="24" height="24" fill="white"/>
</clipPath>
</defs>
</svg>
