<svg width="24" height="24" viewBox="0 0 24 24" fill="none" xmlns="http://www.w3.org/2000/svg">
<path d="M8 12H12ZM16 12H12ZM12 12V8ZM12 12V16ZM12 22C17.523 22 22 17.523 22 12C22 6.477 17.523 2 12 2C6.477 2 2 6.477 2 12C2 17.523 6.477 22 12 22Z" fill="white"/>
<path d="M8 12H12M12 12H16M12 12V8M12 12V16M12 22C17.523 22 22 17.523 22 12C22 6.477 17.523 2 12 2C6.477 2 2 6.477 2 12C2 17.523 6.477 22 12 22Z" stroke="#F35F4C" stroke-width="0.75" stroke-linecap="round" stroke-linejoin="round"/>
</svg>
