<svg width="24" height="24" viewBox="0 0 24 24" fill="none" xmlns="http://www.w3.org/2000/svg">
<g clip-path="url(#clip0_1651_5417)">
<path d="M12.0001 19C14.2093 19 16.0001 17.2091 16.0001 15C16.0001 12.7909 14.2093 11 12.0001 11C9.79101 11 8.00015 12.7909 8.00015 15C8.00015 17.2091 9.79101 19 12.0001 19Z" fill="white"/>
<path d="M21 5H3C2.20435 5 1.44129 5.31607 0.87868 5.87868C0.31607 6.44129 0 7.20435 0 8L0 24H24V8C24 7.20435 23.6839 6.44129 23.1213 5.87868C22.5587 5.31607 21.7956 5 21 5ZM12 21C10.8133 21 9.65327 20.6481 8.66658 19.9888C7.67988 19.3295 6.91085 18.3924 6.45672 17.2961C6.0026 16.1997 5.88378 14.9933 6.11529 13.8294C6.3468 12.6656 6.91824 11.5965 7.75736 10.7574C8.59647 9.91824 9.66557 9.34679 10.8295 9.11528C11.9933 8.88377 13.1997 9.00259 14.2961 9.45672C15.3925 9.91084 16.3295 10.6799 16.9888 11.6666C17.6481 12.6533 18 13.8133 18 15C17.9984 16.5908 17.3658 18.116 16.2409 19.2409C15.116 20.3657 13.5908 20.9984 12 21Z" fill="white"/>
<path d="M17.7202 3L15.4062 0H8.59318L6.28018 3H17.7202Z" fill="white"/>
</g>
<defs>
<clipPath id="clip0_1651_5417">
<rect width="24" height="24" fill="white"/>
</clipPath>
</defs>
</svg>
