<svg width="26" height="26" viewBox="0 0 26 26" fill="none" xmlns="http://www.w3.org/2000/svg">
<mask id="path-1-inside-1_1716_7069" fill="white">
<path d="M26.0001 23.5604L19.4772 17.0375C21.1716 14.9652 22.0047 12.3209 21.8041 9.65164C21.6036 6.98233 20.3847 4.49223 18.3997 2.69638C16.4147 0.900541 13.8153 -0.063645 11.1393 0.00326312C8.46336 0.0701713 5.91545 1.16305 4.02265 3.05586C2.12985 4.94866 1.03697 7.49656 0.97006 10.1726C0.903152 12.8485 1.86734 15.4479 3.66318 17.4329C5.45902 19.4179 7.94913 20.6368 10.6184 20.8373C13.2877 21.0379 15.932 20.2048 18.0043 18.5104L24.5272 25.0333L26.0001 23.5604ZM11.4168 18.7833C9.76863 18.7833 8.15746 18.2946 6.78705 17.3789C5.41664 16.4632 4.34854 15.1618 3.71781 13.639C3.08708 12.1163 2.92205 10.4408 3.24359 8.82426C3.56514 7.20775 4.35881 5.72289 5.52425 4.55745C6.68969 3.39201 8.17454 2.59834 9.79105 2.2768C11.4076 1.95525 13.0831 2.12028 14.6058 2.75101C16.1286 3.38174 17.43 4.44985 18.3457 5.82026C19.2614 7.19067 19.7501 8.80183 19.7501 10.45C19.7477 12.6594 18.8689 14.7776 17.3066 16.3398C15.7444 17.9021 13.6262 18.7809 11.4168 18.7833Z"/>
</mask>
<path d="M26.0001 23.5604L19.4772 17.0375C21.1716 14.9652 22.0047 12.3209 21.8041 9.65164C21.6036 6.98233 20.3847 4.49223 18.3997 2.69638C16.4147 0.900541 13.8153 -0.063645 11.1393 0.00326312C8.46336 0.0701713 5.91545 1.16305 4.02265 3.05586C2.12985 4.94866 1.03697 7.49656 0.97006 10.1726C0.903152 12.8485 1.86734 15.4479 3.66318 17.4329C5.45902 19.4179 7.94913 20.6368 10.6184 20.8373C13.2877 21.0379 15.932 20.2048 18.0043 18.5104L24.5272 25.0333L26.0001 23.5604ZM11.4168 18.7833C9.76863 18.7833 8.15746 18.2946 6.78705 17.3789C5.41664 16.4632 4.34854 15.1618 3.71781 13.639C3.08708 12.1163 2.92205 10.4408 3.24359 8.82426C3.56514 7.20775 4.35881 5.72289 5.52425 4.55745C6.68969 3.39201 8.17454 2.59834 9.79105 2.2768C11.4076 1.95525 13.0831 2.12028 14.6058 2.75101C16.1286 3.38174 17.43 4.44985 18.3457 5.82026C19.2614 7.19067 19.7501 8.80183 19.7501 10.45C19.7477 12.6594 18.8689 14.7776 17.3066 16.3398C15.7444 17.9021 13.6262 18.7809 11.4168 18.7833Z" fill="#F35F4C"/>
<path d="M26.0001 23.5604L41.0851 38.6454L56.17 23.5604L41.0851 8.47548L26.0001 23.5604ZM19.4772 17.0375L2.96177 3.53377L-9.25498 18.4752L4.39228 32.1225L19.4772 17.0375ZM18.0043 18.5104L33.0892 3.42548L19.442 -10.2218L4.50057 1.99497L18.0043 18.5104ZM24.5272 25.0333L9.44228 40.1183L24.5272 55.2032L39.6122 40.1183L24.5272 25.0333ZM11.4168 18.7833V40.1167H11.4288L11.4408 40.1167L11.4168 18.7833ZM19.7501 10.45L41.0835 10.474L41.0835 10.462V10.45H19.7501ZM41.0851 8.47548L34.5622 1.95257L4.39228 32.1225L10.9152 38.6454L41.0851 8.47548ZM35.9927 30.5412C41.1517 24.2317 43.6882 16.1806 43.0775 8.05327L0.530771 11.25C0.321243 8.46131 1.19158 5.69876 2.96177 3.53377L35.9927 30.5412ZM43.0775 8.05327C42.4669 -0.0740373 38.7558 -7.65573 32.7119 -13.1236L4.08748 18.5164C2.01367 16.6402 0.740299 14.0387 0.530771 11.25L43.0775 8.05327ZM32.7119 -13.1236C26.6681 -18.5914 18.7538 -21.5271 10.6061 -21.3234L11.6726 21.3299C8.8769 21.3998 6.1613 20.3925 4.08748 18.5164L32.7119 -13.1236ZM10.6061 -21.3234C2.45845 -21.1197 -5.29922 -17.7922 -11.0623 -12.0291L19.1076 18.1408C17.1301 20.1183 14.4683 21.26 11.6726 21.3299L10.6061 -21.3234ZM-11.0623 -12.0291C-16.8254 -6.26602 -20.1529 1.49166 -20.3566 9.63932L22.2967 10.7058C22.2268 13.5015 21.0851 16.1633 19.1076 18.1408L-11.0623 -12.0291ZM-20.3566 9.63932C-20.5603 17.787 -17.6246 25.7013 -12.1568 31.7451L19.4831 3.12068C21.3593 5.1945 22.3666 7.9101 22.2967 10.7058L-20.3566 9.63932ZM-12.1568 31.7451C-6.68893 37.789 0.89276 41.5001 9.02006 42.1107L12.2168 -0.436026C15.0055 -0.226498 17.607 1.04687 19.4831 3.12068L-12.1568 31.7451ZM9.02006 42.1107C17.1474 42.7214 25.1985 40.1849 31.508 35.0259L4.50057 1.99497C6.66555 0.224787 9.4281 -0.645554 12.2168 -0.436026L9.02006 42.1107ZM2.91936 33.5954L9.44228 40.1183L39.6122 9.94839L33.0892 3.42548L2.91936 33.5954ZM39.6122 40.1183L41.0851 38.6454L10.9152 8.47548L9.44228 9.9484L39.6122 40.1183ZM11.4168 -2.54999C13.988 -2.54999 16.5014 -1.78755 18.6392 -0.359097L-5.06511 35.1169C-0.186458 38.3768 5.54929 40.1167 11.4168 40.1167V-2.54999ZM18.6392 -0.359097C20.7771 1.06936 22.4433 3.09969 23.4272 5.47512L-15.9916 21.8029C-13.7462 27.2238 -9.94377 31.8571 -5.06511 35.1169L18.6392 -0.359097ZM23.4272 5.47512C24.4112 7.85056 24.6686 10.4644 24.167 12.9862L-17.6798 4.66233C-18.8245 10.4171 -18.237 16.3821 -15.9916 21.8029L23.4272 5.47512ZM24.167 12.9862C23.6654 15.5079 22.4273 17.8243 20.6092 19.6424L-9.5607 -10.5275C-13.7097 -6.37854 -16.5351 -1.09244 -17.6798 4.66233L24.167 12.9862ZM20.6092 19.6424C18.7911 21.4605 16.4747 22.6986 13.953 23.2002L5.62913 -18.6466C-0.125645 -17.5019 -5.41174 -14.6765 -9.5607 -10.5275L20.6092 19.6424ZM13.953 23.2002C11.4312 23.7018 8.81736 23.4444 6.44192 22.4604L22.7697 -16.9584C17.3489 -19.2038 11.3839 -19.7913 5.62913 -18.6466L13.953 23.2002ZM6.44192 22.4604C4.06648 21.4765 2.03616 19.8103 0.607699 17.6724L36.0837 -6.03191C32.8239 -10.9106 28.1906 -14.713 22.7697 -16.9584L6.44192 22.4604ZM0.607699 17.6724C-0.820756 15.5346 -1.58319 13.0212 -1.58319 10.45H41.0835C41.0835 4.58249 39.3435 -1.15326 36.0837 -6.03191L0.607699 17.6724ZM-1.58318 10.426C-1.57932 6.98577 -0.210961 3.68752 2.22168 1.25488L32.3916 31.4248C37.9487 25.8676 41.0746 18.333 41.0835 10.474L-1.58318 10.426ZM2.22168 1.25488C4.65431 -1.17776 7.95257 -2.54611 11.3928 -2.54998L11.4408 40.1167C19.2998 40.1078 26.8344 36.9819 32.3916 31.4248L2.22168 1.25488Z" fill="#F35F4C" mask="url(#path-1-inside-1_1716_7069)"/>
</svg>
