<svg width="37" height="37" viewBox="0 0 37 37" fill="current" xmlns="http://www.w3.org/2000/svg">
<g clip-path="url(#clip0_1751_5496)">
<path d="M31.0441 37C30.4738 36.9984 29.9094 36.8839 29.3836 36.6629C28.8578 36.442 28.381 36.119 27.9808 35.7127L18.4995 26.287L9.01829 35.7189C8.40937 36.3367 7.62846 36.7567 6.77735 36.9241C5.92624 37.0916 5.04441 36.9988 4.24683 36.6578C3.44133 36.3338 2.75226 35.7744 2.26958 35.0527C1.7869 34.331 1.53306 33.4806 1.54121 32.6124V7.70833C1.54121 5.66396 2.35333 3.70331 3.79892 2.25772C5.24452 0.812126 7.20516 0 9.24954 0L27.7495 0C28.7618 0 29.7642 0.199382 30.6994 0.586762C31.6346 0.974142 32.4844 1.54193 33.2002 2.25772C33.9159 2.9735 34.4837 3.82326 34.8711 4.75848C35.2585 5.6937 35.4579 6.69606 35.4579 7.70833V32.6124C35.4665 33.4799 35.2136 34.3298 34.7321 35.0514C34.2505 35.773 33.5628 36.3328 32.7584 36.6578C32.2155 36.8848 31.6326 37.0012 31.0441 37ZM9.24954 3.08333C8.02291 3.08333 6.84653 3.57061 5.97917 4.43796C5.11181 5.30532 4.62454 6.48171 4.62454 7.70833V32.6124C4.62398 32.8693 4.69957 33.1206 4.84176 33.3346C4.98395 33.5485 5.18636 33.7155 5.42342 33.8145C5.66048 33.9135 5.92155 33.94 6.17367 33.8907C6.42578 33.8414 6.65763 33.7184 6.83991 33.5374L17.4204 23.0217C17.7092 22.7346 18.1 22.5734 18.5072 22.5734C18.9145 22.5734 19.3053 22.7346 19.5941 23.0217L30.1623 33.5343C30.3445 33.7154 30.5764 33.8383 30.8285 33.8876C31.0806 33.9369 31.3417 33.9104 31.5787 33.8114C31.8158 33.7125 32.0182 33.5454 32.1604 33.3315C32.3026 33.1175 32.3782 32.8662 32.3776 32.6093V7.70833C32.3776 6.48171 31.8903 5.30532 31.023 4.43796C30.1556 3.57061 28.9793 3.08333 27.7526 3.08333H9.24954Z" fill="current"/>
</g>
<defs>
<clipPath id="clip0_1751_5496">
<rect width="37" height="37" fill="current"/>
</clipPath>
</defs>
</svg>
