<svg width="40" height="40" viewBox="0 0 40 40" fill="current" xmlns="http://www.w3.org/2000/svg">
<g clip-path="url(#clip0_1751_5478)">
<path d="M29.1669 3.19434C27.2902 3.22353 25.4544 3.74742 23.8449 4.71312C22.2354 5.67882 20.9092 7.05212 20.0003 8.69434C19.0913 7.05212 17.7651 5.67882 16.1557 4.71312C14.5462 3.74742 12.7103 3.22353 10.8336 3.19434C7.84182 3.32432 5.0231 4.63309 2.99323 6.83472C0.963355 9.03635 -0.112662 11.9519 0.000256005 14.9443C0.000256005 22.5227 7.97692 30.7993 14.6669 36.411C16.1606 37.6662 18.0492 38.3544 20.0003 38.3544C21.9513 38.3544 23.8399 37.6662 25.3336 36.411C32.0236 30.7993 40.0003 22.5227 40.0003 14.9443C40.1132 11.9519 39.0372 9.03635 37.0073 6.83472C34.9774 4.63309 32.1587 3.32432 29.1669 3.19434ZM23.1919 33.861C22.2986 34.6133 21.1682 35.0258 20.0003 35.0258C18.8323 35.0258 17.702 34.6133 16.8086 33.861C8.24526 26.676 3.33359 19.7827 3.33359 14.9443C3.21966 12.8355 3.9442 10.7672 5.34919 9.1905C6.75419 7.61379 8.72565 6.65659 10.8336 6.52767C12.9415 6.65659 14.913 7.61379 16.318 9.1905C17.723 10.7672 18.4475 12.8355 18.3336 14.9443C18.3336 15.3864 18.5092 15.8103 18.8217 16.1228C19.1343 16.4354 19.5582 16.611 20.0003 16.611C20.4423 16.611 20.8662 16.4354 21.1788 16.1228C21.4913 15.8103 21.6669 15.3864 21.6669 14.9443C21.553 12.8355 22.2775 10.7672 23.6825 9.1905C25.0875 7.61379 27.059 6.65659 29.1669 6.52767C31.2749 6.65659 33.2463 7.61379 34.6513 9.1905C36.0563 10.7672 36.7809 12.8355 36.6669 14.9443C36.6669 19.7827 31.7553 26.676 23.1919 33.8543V33.861Z" fill="current"/>
</g>
<defs>
<clipPath id="clip0_1751_5478">
<rect width="40" height="40" fill="current"/>
</clipPath>
</defs>
</svg>
