<svg width="184" height="35" viewBox="0 0 184 35" fill="none" xmlns="http://www.w3.org/2000/svg">
<path d="M14.2639 33.6084C14.2639 34.0244 13.2879 34.3604 11.3359 34.6164C9.38392 34.8724 7.43192 35.0004 5.47992 35.0004C3.52792 35.0004 2.27992 34.8884 1.73592 34.6644C1.19192 34.4404 0.919922 34.0884 0.919922 33.6084V2.74443C0.919922 1.20843 5.52792 0.44043 14.7439 0.44043C20.3119 0.44043 23.9919 0.82443 25.7839 1.59243C27.9599 2.48843 29.4319 3.70443 30.1999 5.24043C31.2239 7.22443 31.7359 9.76843 31.7359 12.8724C31.7359 17.1284 30.9999 20.2164 29.5279 22.1364C28.4719 23.5444 27.4159 24.4564 26.3599 24.8724C25.3039 25.2884 24.4239 25.5924 23.7199 25.7844C23.0479 25.9444 22.1999 26.0724 21.1759 26.1684C19.7679 26.2964 17.8479 26.3604 15.4159 26.3604L14.2639 26.3124V33.6084ZM14.3119 18.3444H15.4639C16.0719 18.3444 16.5519 18.2644 16.9039 18.1044C17.2559 17.9124 17.5599 17.4324 17.8159 16.6644C18.1039 15.8644 18.2479 14.7604 18.2479 13.3524C18.2479 11.9124 18.0879 10.8244 17.7679 10.0884C17.4799 9.32043 17.1759 8.87243 16.8559 8.74443C16.5679 8.58443 16.2159 8.50443 15.7999 8.50443H14.3119V18.3444Z" fill="#F35F4C"/>
<path d="M58.7134 35.0004H38.3614C36.7934 35.0004 35.7374 34.8884 35.1934 34.6644C34.6494 34.4404 34.3774 34.0884 34.3774 33.6084V3.22443C34.3774 2.39243 34.7454 1.80043 35.4814 1.44843C36.2494 1.09643 37.6094 0.920429 39.5614 0.920429H58.8574C59.5294 0.920429 59.8654 2.04043 59.8654 4.28043C59.8654 6.48843 59.7214 8.18443 59.4334 9.36843C59.1454 10.5204 58.7614 11.0964 58.2814 11.0964C56.2014 11.0964 52.6974 10.8884 47.7694 10.4724V13.6884C52.5054 13.4964 55.5934 13.4004 57.0334 13.4004C57.8974 13.4004 58.3294 14.4084 58.3294 16.4244C58.3294 18.4404 58.1534 19.9764 57.8014 21.0324C57.4814 22.0564 57.0334 22.5684 56.4574 22.5684L47.7694 22.3764V25.4484C53.3374 25.0324 57.1774 24.8244 59.2894 24.8244C59.9614 24.8244 60.2974 25.9444 60.2974 28.1844C60.2974 30.4244 60.1534 32.1204 59.8654 33.2724C59.5774 34.4244 59.1934 35.0004 58.7134 35.0004Z" fill="#F35F4C"/>
<path d="M83.5943 33.8484C83.5943 34.2004 82.6023 34.4884 80.6183 34.7124C78.6663 34.9044 76.6983 35.0004 74.7143 35.0004C72.7623 35.0004 71.5143 34.9204 70.9703 34.7604C70.4583 34.5684 70.2023 34.2644 70.2023 33.8484V13.2084H63.5303C63.1783 13.2084 62.8743 12.7604 62.6183 11.8644C62.3623 10.9684 62.2343 9.64043 62.2343 7.88043C62.2343 6.08843 62.4263 4.48843 62.8103 3.08043C63.1943 1.64043 63.7063 0.920429 64.3463 0.920429H90.3143C90.7943 0.920429 91.1143 1.36843 91.2743 2.26443C91.4663 3.16043 91.5623 4.45643 91.5623 6.15243C91.5623 7.84843 91.3863 9.44843 91.0343 10.9524C90.6823 12.4564 90.2023 13.2084 89.5943 13.2084H83.5943V33.8484Z" fill="#F35F4C"/>
<path d="M107.324 33.6084C107.324 34.0244 106.348 34.3604 104.396 34.6164C102.444 34.8724 100.492 35.0004 98.5399 35.0004C96.5879 35.0004 95.3399 34.8884 94.7959 34.6644C94.2519 34.4404 93.9799 34.0884 93.9799 33.6084V2.74443C93.9799 1.20843 98.5879 0.44043 107.804 0.44043C113.372 0.44043 117.052 0.82443 118.844 1.59243C121.02 2.48843 122.492 3.70443 123.26 5.24043C124.284 7.22443 124.796 9.76843 124.796 12.8724C124.796 17.1284 124.06 20.2164 122.588 22.1364C121.532 23.5444 120.476 24.4564 119.42 24.8724C118.364 25.2884 117.484 25.5924 116.78 25.7844C116.108 25.9444 115.26 26.0724 114.236 26.1684C112.828 26.2964 110.908 26.3604 108.476 26.3604L107.324 26.3124V33.6084ZM107.372 18.3444H108.524C109.132 18.3444 109.612 18.2644 109.964 18.1044C110.316 17.9124 110.62 17.4324 110.876 16.6644C111.164 15.8644 111.308 14.7604 111.308 13.3524C111.308 11.9124 111.148 10.8244 110.828 10.0884C110.54 9.32043 110.236 8.87243 109.916 8.74443C109.628 8.58443 109.276 8.50443 108.86 8.50443H107.372V18.3444Z" fill="#F35F4C"/>
<path d="M137.826 32.5524C137.762 33.4804 137.266 34.1204 136.338 34.4724C135.442 34.8244 133.81 35.0004 131.442 35.0004C129.074 35.0004 127.09 34.7924 125.49 34.3764C123.922 33.9284 123.138 33.3684 123.138 32.6964C123.138 31.9284 124.562 27.0324 127.41 18.0084C130.258 8.95243 131.89 3.73643 132.306 2.36043C132.466 1.94443 133.746 1.60843 136.146 1.35243C138.578 1.06443 141.17 0.920429 143.922 0.920429C146.706 0.920429 148.242 1.40043 148.53 2.36043C154.578 22.4564 157.602 32.6644 157.602 32.9844C157.602 33.3044 157.41 33.6244 157.026 33.9444C156.13 34.6484 154.354 35.0004 151.698 35.0004C146.034 35.0004 143.138 34.3284 143.01 32.9844L142.674 29.8644H138.066L137.826 32.5524ZM141.666 20.7444L140.946 12.1044H139.89L139.074 20.7444H141.666Z" fill="#F35F4C"/>
<path d="M175.154 33.8484C175.154 34.2004 174.162 34.4884 172.178 34.7124C170.226 34.9044 168.258 35.0004 166.274 35.0004C164.322 35.0004 163.074 34.9204 162.53 34.7604C162.018 34.5684 161.762 34.2644 161.762 33.8484V13.2084H155.09C154.738 13.2084 154.434 12.7604 154.178 11.8644C153.922 10.9684 153.794 9.64043 153.794 7.88043C153.794 6.08843 153.986 4.48843 154.37 3.08043C154.754 1.64043 155.266 0.920429 155.906 0.920429H181.874C182.354 0.920429 182.674 1.36843 182.834 2.26443C183.026 3.16043 183.122 4.45643 183.122 6.15243C183.122 7.84843 182.946 9.44843 182.594 10.9524C182.242 12.4564 181.762 13.2084 181.154 13.2084H175.154V33.8484Z" fill="#F35F4C"/>
</svg>
