<svg width="30" height="30" viewBox="0 0 30 30" fill="current" xmlns="http://www.w3.org/2000/svg">
<path d="M24.1573 7.22215L24.9888 6.66658L24.9888 6.66658L24.1573 7.22215ZM24.1573 20.2779L24.9888 20.8334L24.9888 20.8334L24.1573 20.2779ZM22.7779 21.6573L23.3334 22.4888L23.3334 22.4888L22.7779 21.6573ZM17.5 22.4983L17.4956 21.4983C16.9451 21.5007 16.5 21.9477 16.5 22.4983H17.5ZM17.5 22.5L18.3944 22.9472C18.4639 22.8084 18.5 22.6552 18.5 22.5H17.5ZM12.5 22.5H11.5C11.5 22.6552 11.5361 22.8084 11.6056 22.9472L12.5 22.5ZM12.5 22.4983H13.5C13.5 21.9477 13.0549 21.5007 12.5044 21.4983L12.5 22.4983ZM7.22215 21.6573L6.66658 22.4888L6.66658 22.4888L7.22215 21.6573ZM5.84265 20.2779L5.01118 20.8334H5.01118L5.84265 20.2779ZM5.84265 7.22215L6.67412 7.77772L6.67412 7.77772L5.84265 7.22215ZM7.22215 5.84265L7.77772 6.67412L7.77772 6.67412L7.22215 5.84265ZM22.7779 5.84265L23.3334 5.01118V5.01118L22.7779 5.84265ZM26 13.75C26 12.0152 26.0012 10.6389 25.8895 9.54111C25.7762 8.42661 25.5382 7.48883 24.9888 6.66658L23.3259 7.77772C23.6191 8.21658 23.8025 8.78716 23.8998 9.74352C23.9988 10.7166 24 11.9736 24 13.75H26ZM24.9888 20.8334C25.5382 20.0112 25.7762 19.0734 25.8895 17.9589C26.0012 16.8611 26 15.4848 26 13.75H24C24 15.5264 23.9988 16.7834 23.8998 17.7565C23.8025 18.7128 23.6191 19.2834 23.3259 19.7223L24.9888 20.8334ZM23.3334 22.4888C23.9886 22.0511 24.5511 21.4886 24.9888 20.8334L23.3259 19.7223C23.034 20.159 22.659 20.534 22.2223 20.8259L23.3334 22.4888ZM17.5044 23.4983C18.8482 23.4924 19.9548 23.4671 20.8741 23.34C21.8095 23.2107 22.6153 22.9687 23.3334 22.4888L22.2223 20.8259C21.8388 21.0821 21.3541 21.2547 20.6003 21.3589C19.8304 21.4653 18.849 21.4924 17.4956 21.4983L17.5044 23.4983ZM18.5 22.5V22.4983H16.5V22.5H18.5ZM16.7889 26.1584L18.3944 22.9472L16.6056 22.0528L15 25.2639L16.7889 26.1584ZM13.2111 26.1584C13.9482 27.6325 16.0518 27.6325 16.7889 26.1584L15 25.2639L15 25.2639L13.2111 26.1584ZM11.6056 22.9472L13.2111 26.1584L15 25.2639L13.3944 22.0528L11.6056 22.9472ZM11.5 22.4983V22.5H13.5V22.4983H11.5ZM6.66658 22.4888C7.38474 22.9687 8.19049 23.2107 9.12586 23.34C10.0452 23.4671 11.1518 23.4924 12.4956 23.4983L12.5044 21.4983C11.151 21.4924 10.1696 21.4653 9.39971 21.3589C8.64586 21.2547 8.16125 21.0821 7.77772 20.8259L6.66658 22.4888ZM5.01118 20.8334C5.44893 21.4886 6.01144 22.0511 6.66658 22.4888L7.77772 20.8259C7.34096 20.534 6.96596 20.159 6.67412 19.7223L5.01118 20.8334ZM4 13.75C4 15.4848 3.99879 16.8611 4.11047 17.9589C4.22384 19.0734 4.46177 20.0112 5.01118 20.8334L6.67412 19.7223C6.38088 19.2834 6.19749 18.7128 6.1002 17.7565C6.00121 16.7834 6 15.5264 6 13.75H4ZM5.01118 6.66658C4.46177 7.48883 4.22384 8.42661 4.11047 9.5411C3.99879 10.6389 4 12.0152 4 13.75H6C6 11.9736 6.00121 10.7166 6.1002 9.74352C6.19749 8.78716 6.38088 8.21658 6.67412 7.77772L5.01118 6.66658ZM6.66658 5.01118C6.01144 5.44893 5.44893 6.01144 5.01118 6.66658L6.67412 7.77772C6.96596 7.34096 7.34096 6.96596 7.77772 6.67412L6.66658 5.01118ZM13.75 4C12.0152 4 10.6389 3.99879 9.5411 4.11047C8.42661 4.22384 7.48883 4.46177 6.66658 5.01118L7.77772 6.67412C8.21658 6.38088 8.78716 6.19749 9.74352 6.1002C10.7166 6.00121 11.9736 6 13.75 6V4ZM16.25 4H13.75V6H16.25V4ZM23.3334 5.01118C22.5112 4.46177 21.5734 4.22384 20.4589 4.11047C19.3611 3.99879 17.9848 4 16.25 4V6C18.0264 6 19.2834 6.00121 20.2565 6.1002C21.2128 6.19749 21.7834 6.38088 22.2223 6.67412L23.3334 5.01118ZM24.9888 6.66658C24.5511 6.01144 23.9886 5.44893 23.3334 5.01118L22.2223 6.67412C22.659 6.96596 23.034 7.34096 23.3259 7.77772L24.9888 6.66658Z" fill="current"/>
<circle cx="20" cy="13.75" r="1.25" fill="current" stroke="current" stroke-linecap="round"/>
<circle cx="15" cy="13.75" r="1.25" fill="current" stroke="current" stroke-linecap="round"/>
<circle cx="10" cy="13.75" r="1.25" fill="current" stroke="current" stroke-linecap="round"/>
</svg>
