<svg width="24" height="24" viewBox="0 0 24 24" fill="none" xmlns="http://www.w3.org/2000/svg">
<g clip-path="url(#clip0_2144_5683)">
<path d="M11.9999 0.0429688C9.35386 0.0458798 6.817 1.09824 4.94586 2.9692C3.07472 4.84015 2.0221 7.37691 2.01892 10.023C2.01892 12.593 4.00892 16.615 7.93392 21.977C8.40118 22.6171 9.01298 23.1379 9.71952 23.4969C10.4261 23.8559 11.2074 24.043 11.9999 24.043C12.7924 24.043 13.5738 23.8559 14.2803 23.4969C14.9869 23.1379 15.5987 22.6171 16.0659 21.977C19.9909 16.615 21.9809 12.593 21.9809 10.023C21.9777 7.37691 20.9251 4.84015 19.054 2.9692C17.1828 1.09824 14.646 0.0458798 11.9999 0.0429688ZM11.9999 14.001C11.2088 14.001 10.4354 13.7664 9.77764 13.3268C9.11984 12.8873 8.60715 12.2626 8.3044 11.5317C8.00165 10.8008 7.92244 9.99653 8.07678 9.22061C8.23112 8.44468 8.61208 7.73195 9.17149 7.17254C9.7309 6.61313 10.4436 6.23217 11.2196 6.07783C11.9955 5.92349 12.7998 6.0027 13.5307 6.30545C14.2616 6.6082 14.8863 7.12089 15.3258 7.77869C15.7653 8.43649 15.9999 9.20984 15.9999 10.001C15.9999 11.0618 15.5785 12.0793 14.8283 12.8294C14.0782 13.5795 13.0608 14.001 11.9999 14.001Z" fill="#9CA3AF"/>
</g>
<defs>
<clipPath id="clip0_2144_5683">
<rect width="24" height="24" fill="white"/>
</clipPath>
</defs>
</svg>
