<svg width="24" height="24" viewBox="0 0 24 24" fill="none" xmlns="http://www.w3.org/2000/svg">
<path d="M11.0117 15H13.0137V5H11.0117V15Z" fill="#F35F4C"/>
<path d="M11.0117 17H13.0137V19H11.0117V17Z" fill="#F35F4C"/>
<path d="M24 24H12.0062C9.66283 23.9989 7.371 23.3131 5.41296 22.027C3.45492 20.7409 1.91618 18.9108 0.986276 16.762C0.0563728 14.6132 -0.224083 12.2396 0.179453 9.93353C0.582988 7.62749 1.65289 5.48972 3.25738 3.78354C4.86187 2.07737 6.93086 0.877292 9.20953 0.331138C11.4882 -0.215015 13.877 -0.0833956 16.0817 0.709785C18.2864 1.50297 20.2108 2.92307 21.6177 4.79517C23.0247 6.66727 23.8528 8.90961 24 11.246V11.309V24ZM12.0062 2C9.35137 2 6.80531 3.05357 4.9281 4.92893C3.05088 6.8043 1.99627 9.34784 1.99627 12C1.99627 14.6522 3.05088 17.1957 4.9281 19.0711C6.80531 20.9464 9.35137 22 12.0062 22H21.998V11.341C21.8264 8.80932 20.6995 6.43703 18.8449 4.70323C16.9902 2.96943 14.5461 2.00332 12.0062 2V2Z" fill="#F35F4C"/>
</svg>
